<!-- icon666.com - MILLIONS vector ICONS FREE --><svg version="1.1" id="Layer_1" xmlns="http://www.w3.org/2000/svg" xmlns:xlink="http://www.w3.org/1999/xlink" x="0px" y="0px" viewBox="0 0 512 512" style="enable-background:new 0 0 512 512;" xml:space="preserve"><g><g><g><path d="M59.733,477.867h102.4c4.719,0,8.533-3.823,8.533-8.533s-3.814-8.533-8.533-8.533H68.267v-68.267h93.867 c4.719,0,8.533-3.823,8.533-8.533s-3.814-8.533-8.533-8.533H68.267v-102.4h93.867c4.719,0,8.533-3.823,8.533-8.533 c0-4.71-3.814-8.533-8.533-8.533H68.625c1.468-18.15,7.117-29.995,7.1-29.995v0.008c1.784-3.217,43.742-79.343,43.742-132.147 v-8.533c4.719,0,8.533-3.823,8.533-8.533s-3.814-8.533-8.533-8.533v-51.2h17.067v76.8c0,52.804,41.958,128.93,43.563,131.814 c0.077,0.154,7.637,15.539,7.637,38.852v204.8c0,4.71,3.814,8.533,8.533,8.533s8.533-3.823,8.533-8.533v-204.8 c0-27.298-9.054-45.713-9.609-46.805c-0.418-0.751-41.591-75.494-41.591-123.861V8.533c0-4.71-3.814-8.533-8.533-8.533h-34.133 c-4.719,0-8.533,3.823-8.533,8.533v85.333c0,48.367-41.173,123.11-41.771,124.186c-0.375,0.768-9.429,19.183-9.429,46.481v204.8 C51.2,474.044,55.014,477.867,59.733,477.867z"></path><path d="M264.533,477.867h153.6c4.719,0,8.533-3.823,8.533-8.533s-3.814-8.533-8.533-8.533H273.067V247.467 c0-3.968,14.729-13.781,21.803-18.5c11.622-7.757,22.69-15.189,27.213-24.166h44.851c4.719,0,8.533-3.823,8.533-8.533 s-3.814-8.533-8.533-8.533h-42.274c0.819-7.987,3.695-19.234,12.911-34.133h12.297c4.719,0,8.533-3.823,8.533-8.533 c0-4.71-3.814-8.533-8.533-8.533h-8.533V68.267h34.133v76.8c0,1.681,0.503,3.337,1.434,4.736 c15.633,23.45,15.633,38.417,15.633,46.464c0,13.099,14.285,22.622,29.397,32.7c7.074,4.719,21.803,14.532,21.803,18.5v221.867 c0,4.71,3.814,8.533,8.533,8.533c4.719,0,8.533-3.823,8.533-8.533V247.467c0-13.099-14.285-22.622-29.397-32.7 c-7.074-4.719-21.803-14.532-21.803-18.5c0-8.9,0-27.187-17.067-53.743v-82.79c0-4.71-3.814-8.533-8.533-8.533h-51.2 c-4.719,0-8.533,3.823-8.533,8.533v82.79C307.2,169.079,307.2,187.366,307.2,196.267c0,3.968-14.729,13.781-21.803,18.5 C270.285,224.845,256,234.368,256,247.467v221.867C256,474.044,259.814,477.867,264.533,477.867z"></path><path d="M503.467,494.933H8.533c-4.719,0-8.533,3.823-8.533,8.533S3.814,512,8.533,512h494.933c4.719,0,8.533-3.823,8.533-8.533 S508.186,494.933,503.467,494.933z"></path><path d="M358.4,290.133c-37.641,0-68.267,26.795-68.267,59.733S320.759,409.6,358.4,409.6c37.641,0,68.267-26.795,68.267-59.733 S396.041,290.133,358.4,290.133z M358.4,392.533c-28.237,0-51.2-19.14-51.2-42.667c0-23.526,22.963-42.667,51.2-42.667 c28.237,0,51.2,19.14,51.2,42.667C409.6,373.393,386.637,392.533,358.4,392.533z"></path></g></g></g></svg>